<svg aria-hidden="true" style="width:0;height:0;position:absolute" xmlns="http://www.w3.org/2000/svg" overflow="hidden"><symbol id="icon-arrow-right" viewBox="0 0 19 9"><path fill-rule="evenodd" clip-rule="evenodd" d="M.935 4.5a.5.5 0 0 1 .5-.5h16a.5.5 0 1 1 0 1h-16a.5.5 0 0 1-.5-.5Z"/><path fill-rule="evenodd" clip-rule="evenodd" d="M13.582.646a.5.5 0 0 1 .707 0L18.142 4.5 14.29 8.354a.5.5 0 1 1-.707-.708L16.728 4.5l-3.146-3.146a.5.5 0 0 1 0-.708Z"/>/&gt;</symbol><symbol id="icon-arrow-left" viewBox="0 0 19 9"><path fill-rule="evenodd" clip-rule="evenodd" d="M18 4.5a.5.5 0 0 0-.5-.5h-16a.5.5 0 0 0 0 1h16a.5.5 0 0 0 .5-.5Z"/><path fill-rule="evenodd" clip-rule="evenodd" d="M5.354.646a.5.5 0 0 0-.708 0L.793 4.5l3.853 3.854a.5.5 0 1 0 .708-.708L2.207 4.5l3.147-3.146a.5.5 0 0 0 0-.708Z"/></symbol><symbol id="icon-open-menu" viewBox="0 0 20 14"><g stroke="#333"><path d="M0 1h20M0 7h20M0 13h20"/></g></symbol><symbol id="icon-close-menu" viewBox="0 0 16 16"><g stroke="#fff"><path d="m1.26 1 13.48 14M1 14.74 15 1.26"/></g></symbol><symbol id="icon-modal-phone" viewBox="0 0 18 18"><path d="m13.996 11.123-1.838-.21a1.44 1.44 0 0 0-1.187.412l-1.332 1.332a10.888 10.888 0 0 1-4.769-4.77L6.21 6.55a1.44 1.44 0 0 0 .412-1.187l-.21-1.824a1.448 1.448 0 0 0-1.44-1.28H3.72c-.818 0-1.498.68-1.448 1.497.384 6.18 5.327 11.116 11.5 11.5.817.05 1.498-.63 1.498-1.448v-1.252a1.434 1.434 0 0 0-1.274-1.432Z"/></symbol><symbol id="icon-modal-person" viewBox="0 0 18 18"><path d="M9 9a3 3 0 1 0 0-6 3 3 0 1 0 0 6Zm0 1.5c-2.003 0-6 1.005-6 3v.75c0 .412.337.75.75.75h10.5c.412 0 .75-.338.75-.75v-.75c0-1.995-3.998-3-6-3Z"/></symbol><symbol id="icon-modal-email" viewBox="0 0 18 18"><path d="M15 3H3c-.825 0-1.492.675-1.492 1.5l-.008 9c0 .825.675 1.5 1.5 1.5h12c.825 0 1.5-.675 1.5-1.5v-9c0-.825-.675-1.5-1.5-1.5Zm-.3 3.188L9.398 9.502a.759.759 0 0 1-.796 0L3.3 6.188a.637.637 0 1 1 .675-1.08L9 8.25l5.025-3.143a.637.637 0 1 1 .675 1.08Z"/></symbol></svg>