<svg aria-hidden="true" style="width:0;height:0;position:absolute" xmlns="http://www.w3.org/2000/svg" overflow="hidden"><symbol id="icon-arrow-right" viewBox="0 0 19 9"><path fill-rule="evenodd" clip-rule="evenodd" d="M.935 4.5a.5.5 0 0 1 .5-.5h16a.5.5 0 1 1 0 1h-16a.5.5 0 0 1-.5-.5Z"/><path fill-rule="evenodd" clip-rule="evenodd" d="M13.582.646a.5.5 0 0 1 .707 0L18.142 4.5 14.29 8.354a.5.5 0 1 1-.707-.708L16.728 4.5l-3.146-3.146a.5.5 0 0 1 0-.708Z"/>/&gt;</symbol><symbol id="icon-arrow-left" viewBox="0 0 19 9"><path fill-rule="evenodd" clip-rule="evenodd" d="M18 4.5a.5.5 0 0 0-.5-.5h-16a.5.5 0 0 0 0 1h16a.5.5 0 0 0 .5-.5Z"/><path fill-rule="evenodd" clip-rule="evenodd" d="M5.354.646a.5.5 0 0 0-.708 0L.793 4.5l3.853 3.854a.5.5 0 1 0 .708-.708L2.207 4.5l3.147-3.146a.5.5 0 0 0 0-.708Z"/></symbol></svg>