<svg aria-hidden="true" style="position:absolute;width:0;height:0" xmlns="http://www.w3.org/2000/svg" overflow="hidden">

  <symbol id="icon-arrow-right" viewBox="0 0 19 9">
    <path fill-rule="evenodd" clip-rule="evenodd"
          d="M0.935211 4.5C0.935211 4.22386 1.15907 4 1.43521 4L17.4352 4C17.7114 4 17.9352 4.22386 17.9352 4.5C17.9352 4.77614 17.7114 5 17.4352 5L1.43521 5C1.15907 5 0.935211 4.77614 0.935211 4.5Z"
           />
    <path fill-rule="evenodd" clip-rule="evenodd"
          d="M13.5817 0.646447C13.7769 0.451184 14.0935 0.451184 14.2888 0.646447L18.1423 4.5L14.2888 8.35355C14.0935 8.54882 13.7769 8.54882 13.5817 8.35355C13.3864 8.15829 13.3864 7.84171 13.5817 7.64645L16.7281 4.5L13.5817 1.35355C13.3864 1.15829 13.3864 0.841709 13.5817 0.646447Z"
          />
    />
  </symbol>
  <symbol id="icon-arrow-left"  viewBox="0 0 19 9">
    <path fill-rule="evenodd" clip-rule="evenodd"
          d="M18 4.5C18 4.22386 17.7761 4 17.5 4L1.5 4C1.22386 4 1 4.22386 1 4.5C1 4.77614 1.22386 5 1.5 5L17.5 5C17.7761 5 18 4.77614 18 4.5Z"
    />
    <path fill-rule="evenodd" clip-rule="evenodd"
          d="M5.35355 0.646447C5.15829 0.451184 4.84171 0.451184 4.64645 0.646447L0.792894 4.5L4.64645 8.35355C4.84171 8.54882 5.15829 8.54882 5.35355 8.35355C5.54882 8.15829 5.54882 7.84171 5.35355 7.64645L2.20711 4.5L5.35355 1.35355C5.54882 1.15829 5.54882 0.841709 5.35355 0.646447Z"
    />
  </symbol>
  <symbol id="icon-open-menu" viewBox="0 0 20 14">
    <g>
      <path d="M0 1H20" stroke="white" />
      <path d="M0 7H20" stroke="white" />
      <path d="M0 13H20" stroke="white" />
    </g>
  </symbol>
  <symbol id="icon-close-menu" viewBox="0 0 16 16">
    <g>
      <path d="M1.25928 1L14.7408 15" stroke="white" />
      <path d="M1 14.7407L15 1.25924" stroke="white" />
    </g>
  </symbol>

  <!--  <symbol id="icon-products-link" viewBox="0 0 32 32">-->

  <!--  </symbol>-->
</svg>