<svg aria-hidden="true" style="position:absolute;width:0;height:0" xmlns="http://www.w3.org/2000/svg" overflow="hidden">

  <symbol id="icon-arrow-right" viewBox="0 0 19 9">
    <path fill-rule="evenodd" clip-rule="evenodd"
          d="M0.935211 4.5C0.935211 4.22386 1.15907 4 1.43521 4L17.4352 4C17.7114 4 17.9352 4.22386 17.9352 4.5C17.9352 4.77614 17.7114 5 17.4352 5L1.43521 5C1.15907 5 0.935211 4.77614 0.935211 4.5Z"
    />
    <path fill-rule="evenodd" clip-rule="evenodd"
          d="M13.5817 0.646447C13.7769 0.451184 14.0935 0.451184 14.2888 0.646447L18.1423 4.5L14.2888 8.35355C14.0935 8.54882 13.7769 8.54882 13.5817 8.35355C13.3864 8.15829 13.3864 7.84171 13.5817 7.64645L16.7281 4.5L13.5817 1.35355C13.3864 1.15829 13.3864 0.841709 13.5817 0.646447Z"
    />
    />
  </symbol>
  <symbol id="icon-arrow-left" viewBox="0 0 19 9">
    <path fill-rule="evenodd" clip-rule="evenodd"
          d="M18 4.5C18 4.22386 17.7761 4 17.5 4L1.5 4C1.22386 4 1 4.22386 1 4.5C1 4.77614 1.22386 5 1.5 5L17.5 5C17.7761 5 18 4.77614 18 4.5Z"
    />
    <path fill-rule="evenodd" clip-rule="evenodd"
          d="M5.35355 0.646447C5.15829 0.451184 4.84171 0.451184 4.64645 0.646447L0.792894 4.5L4.64645 8.35355C4.84171 8.54882 5.15829 8.54882 5.35355 8.35355C5.54882 8.15829 5.54882 7.84171 5.35355 7.64645L2.20711 4.5L5.35355 1.35355C5.54882 1.15829 5.54882 0.841709 5.35355 0.646447Z"
    />
  </symbol>
  <symbol id="icon-open-menu" viewBox="0 0 20 14">
    <g>
      <path d="M0 1H20" stroke="#333333"/>
      <path d="M0 7H20" stroke="#333333"/>
      <path d="M0 13H20" stroke="#333333"/>
    </g>
  </symbol>
  <symbol id="icon-close-menu" viewBox="0 0 16 16">
    <g>
      <path d="M1.25928 1L14.7408 15" stroke="white"/>
      <path d="M1 14.7407L15 1.25924" stroke="white"/>
    </g>
  </symbol>
  <symbol id="icon-modal-phone" viewBox="0 0 18 18">
    <g>
      <path
        d="M13.996 11.1226L12.1579 10.9127C11.7164 10.862 11.2822 11.014 10.971 11.3252L9.63945 12.6568C7.59144 11.6147 5.91251 9.94296 4.87041 7.8877L6.20922 6.54888C6.5204 6.2377 6.67237 5.80349 6.62171 5.36205L6.41185 3.53836C6.325 2.80745 5.70988 2.25745 4.97173 2.25745H3.71976C2.902 2.25745 2.22175 2.93771 2.2724 3.75547C2.65595 9.93572 7.59868 14.8712 13.7717 15.2548C14.5894 15.3054 15.2697 14.6252 15.2697 13.8074V12.5555C15.2769 11.8245 14.7269 11.2094 13.996 11.1226Z"/>
    </g>
  </symbol>
  <symbol id="icon-modal-person" viewBox="0 0 18 18">
    <g>
      <path
        d="M9 9C10.6575 9 12 7.6575 12 6C12 4.3425 10.6575 3 9 3C7.3425 3 6 4.3425 6 6C6 7.6575 7.3425 9 9 9ZM9 10.5C6.9975 10.5 3 11.505 3 13.5V14.25C3 14.6625 3.3375 15 3.75 15H14.25C14.6625 15 15 14.6625 15 14.25V13.5C15 11.505 11.0025 10.5 9 10.5Z"/>
    </g>
  </symbol>
  <symbol id="icon-modal-email" viewBox="0 0 18 18">
    <g>
      <path
        d="M15 3H3C2.175 3 1.5075 3.675 1.5075 4.5L1.5 13.5C1.5 14.325 2.175 15 3 15H15C15.825 15 16.5 14.325 16.5 13.5V4.5C16.5 3.675 15.825 3 15 3ZM14.7 6.1875L9.3975 9.5025C9.1575 9.6525 8.8425 9.6525 8.6025 9.5025L3.3 6.1875C3.1125 6.0675 3 5.865 3 5.6475C3 5.145 3.5475 4.845 3.975 5.1075L9 8.25L14.025 5.1075C14.4525 4.845 15 5.145 15 5.6475C15 5.865 14.8875 6.0675 14.7 6.1875Z"/>
    </g>
  </symbol>

  <!--  <symbol id="icon-products-link" viewBox="0 0 32 32">-->

  <!--  </symbol>-->
</svg>